Coordinates
version=1
nRows=15
nColumns=42
inDegrees=yes

Units are S.I. units (second, meters, Newtons, ...)
If the header above contains a line with 'inDegrees', this indicates whether rotational values are in degrees (yes) or radians (no).

endheader
time	pelvis_tilt	pelvis_list	pelvis_rotation	pelvis_tx	pelvis_ty	pelvis_tz	hip_flexion_r	hip_adduction_r	hip_rotation_r	knee_angle_r	knee_adduction_r	knee_angle_r_beta	ankle_angle_r	subtalar_angle_r	mtp_angle_r	hip_flexion_l	hip_adduction_l	hip_rotation_l	knee_angle_l	knee_adduction_l	knee_angle_l_beta	ankle_angle_l	subtalar_angle_l	mtp_angle_l	lumbar_extension	lumbar_bending	lumbar_rotation	arm_flex_r	arm_add_r	arm_rot_r	elbow_flex_r	pro_sup_r	wrist_flex_r	wrist_dev_r	arm_flex_l	arm_add_l	arm_rot_l	elbow_flex_l	pro_sup_l	wrist_flex_l	wrist_dev_l
      1.91000000	     -3.78349553	     -2.55832147	     -4.91019463	     -0.46736844	      0.86190840	      0.19919915	      7.50512218	      3.38123602	     -3.46210173	     12.36422754	      6.88406353	      0.21579648	      8.10667588	      1.44044774	     -7.50533279	     27.82910886	     -9.73445984	     -2.35893137	     61.96214859	      8.91365115	      1.08144350	      6.36101131	    -17.31113293	     -7.50533279	     -5.99830075	      3.11333968	      6.43170831	      3.52525728	    -23.24255549	      0.23768803	     36.47918049	     90.00000001	      0.00000000	      0.00000000	     -5.35298998	    -12.66395540	    -14.71773154	     45.97231404	     90.00000001	      0.00000000	      0.00000000
      1.92000000	     -3.64777906	     -2.32097655	     -5.16546759	     -0.45664021	      0.86180077	      0.20023385	      6.25085654	      3.15384379	     -2.78283204	     11.68455505	      6.94012537	      0.20393396	      8.92790858	      2.04751034	     -7.50522237	     28.58046492	     -9.50730096	     -2.47021173	     59.80633535	      9.21254060	      1.04381747	      6.91892816	    -17.93173444	     -7.50522237	     -6.15093103	      2.73930922	      6.49745289	      4.44387539	    -23.17940819	      0.72254714	     37.47519785	     90.00000001	      0.00000000	      0.00000000	     -5.96449498	    -12.70275888	    -15.00453416	     45.39016509	     90.00000001	      0.00000000	      0.00000000
      1.93000000	     -3.58461965	     -2.36091305	     -5.47180170	     -0.44606435	      0.86135853	      0.20131568	      5.14933175	      3.23187375	     -2.46101197	     11.19385572	      6.94612934	      0.19536964	      9.48434013	      2.31065745	     -7.50478714	     29.34950270	     -9.66045015	     -2.50387900	     57.47771289	      9.59172202	      1.00317534	      7.04524435	    -18.10235461	     -7.50478714	     -6.29515272	      2.72181113	      6.88307653	      5.05947503	    -23.74146441	      2.67670617	     38.80409526	     90.00000001	      0.00000000	      0.00000000	     -6.17465150	    -12.46869272	    -15.94116888	     44.69302403	     90.00000001	      0.00000000	      0.00000000
      1.94000000	     -3.67229461	     -2.49930241	     -5.77820073	     -0.43550736	      0.86048016	      0.20245074	      4.36398530	      3.42710525	     -2.61496539	     11.07931722	      6.86263376	      0.19337056	      9.83649471	      2.52999146	     -7.50471553	     30.25555476	     -9.92482050	     -2.99639301	     55.08339137	      9.48845316	      0.96138654	      7.12159408	    -17.93018040	     -7.50471553	     -6.24447390	      2.79823125	      7.30188986	      5.96082369	    -23.75245272	      2.76620542	     39.43443835	     90.00000001	      0.00000000	      0.00000000	     -6.68618478	    -12.47762227	    -15.97599624	     44.51760550	     90.00000001	      0.00000000	      0.00000000
      1.95000000	     -3.51521599	     -2.43206016	     -6.06439194	     -0.42477463	      0.85974425	      0.20337249	      3.19905935	      3.31847639	     -2.32986206	     10.70112684	      6.90091349	      0.18676990	     10.54226057	      3.09282273	     -7.50462256	     30.65464598	     -9.97895269	     -3.52040798	     52.21969877	      9.61303567	      0.91140568	      7.10030340	    -18.17911433	     -7.50462256	     -6.47982644	      2.64744509	      7.57703606	      6.86234999	    -23.78213514	      3.11948484	     40.25820037	     90.00000001	      0.00000000	      0.00000000	     -7.10094810	    -12.52893537	    -16.15716798	     44.23516883	     90.00000001	      0.00000000	      0.00000000
      1.96000000	     -3.34628790	     -2.54318908	     -6.32637065	     -0.41397203	      0.85878001	      0.20420428	      2.01529228	      3.32221595	     -2.37650143	     10.36591506	      7.03315007	      0.18091935	     11.33010091	      4.10101632	     -7.50427010	     30.95768828	    -10.18971092	     -4.05504526	     49.23203303	      9.63168347	      0.85926107	      6.84349407	    -18.25173422	     -7.50427010	     -6.72756105	      2.71009452	      7.91034088	      7.53865283	    -24.37950043	      5.04730813	     41.52528892	     90.00000001	      0.00000000	      0.00000000	     -7.26978699	    -12.29197488	    -17.02365216	     43.69610595	     90.00000001	      0.00000000	      0.00000000
      1.97000000	     -3.19237374	     -2.62080991	     -6.58933980	     -0.40313645	      0.85764169	      0.20496902	      0.91635992	      3.30834433	     -2.37904593	     10.17932738	      7.09611997	      0.17766278	     11.96041669	      4.60017187	     -7.50414849	     31.16002692	    -10.36581406	     -4.85486930	     46.04852298	      9.50048595	      0.80369834	      6.60010581	    -18.18918538	     -7.50414849	     -6.96473703	      2.73179068	      8.27237221	      8.42937753	    -24.51952335	      5.37710901	     42.21069695	     90.00000001	      0.00000000	      0.00000000	     -7.63164784	    -12.28864266	    -17.16338375	     43.53377770	     90.00000001	      0.00000000	      0.00000000
      1.98000000	     -3.23603988	     -2.92287731	     -6.82650163	     -0.39229628	      0.85610043	      0.20573782	      0.10395495	      3.64343965	     -2.56013795	     10.22365127	      6.94500946	      0.17843638	     12.33093164	      4.83817086	     -7.50408392	     31.56516217	    -10.80080620	     -5.84881537	     42.92161908	      9.17923773	      0.74912357	      6.44853884	    -17.88186278	     -7.50408392	     -6.97633157	      3.05542234	      8.62907515	      9.23983504	    -24.62430389	      5.53137913	     42.81977289	     90.00000001	      0.00000000	      0.00000000	     -8.05807819	    -12.18607468	    -17.21673178	     43.40196561	     90.00000001	      0.00000000	      0.00000000
      1.99000000	     -3.12550274	     -3.11929255	     -7.07689752	     -0.38139107	      0.85465437	      0.20635697	     -0.88335422	      3.76525435	     -2.59814889	     10.21398341	      6.94987312	      0.17826764	     12.86471053	      5.18694060	     -7.50402018	     31.59408282	    -11.08938062	     -6.88473478	     39.46521245	      8.97217818	      0.68879790	      6.15432692	    -17.59177622	     -7.50402018	     -7.18795118	      3.23361560	      8.99383558	     10.06877218	    -24.76318550	      5.81396260	     43.49680472	     90.00000001	      0.00000000	      0.00000000	     -8.38296267	    -12.12738507	    -17.33651490	     43.26937166	     90.00000001	      0.00000000	      0.00000000
      2.00000000	     -2.61559461	     -2.99435879	     -7.29431739	     -0.37024123	      0.85353380	      0.20663698	     -2.30230782	      3.28510841	     -2.77118778	     10.16494355	      7.26869554	      0.17741173	     14.00643003	      6.72034226	     -7.50368469	     30.87005233	    -10.92756016	     -7.51026175	     35.49417829	      9.16636766	      0.61949028	      5.35676309	    -17.74252575	     -7.50368469	     -7.83552542	      3.00295396	      9.22926845	     10.84090257	    -25.62005333	      8.49707279	     44.78856325	     90.00000001	      0.00000000	      0.00000000	     -8.37458200	    -11.95056873	    -18.48152246	     42.84301108	     90.00000001	      0.00000000	      0.00000000
      2.01000000	     -2.38621200	     -3.10721800	     -7.50856257	     -0.35909661	      0.85199311	      0.20701036	     -3.35790419	      3.22699106	     -2.77565001	     10.29598795	      7.35758535	      0.17969889	     14.66904992	      7.03204325	     -7.50357832	     30.49345201	    -11.04825359	     -8.40868825	     31.77685052	      9.11080537	      0.55461067	      4.97270502	    -17.19242632	     -7.50357832	     -8.16538726	      3.06979624	      9.57919299	     11.62074095	    -25.76744129	      8.80931612	     45.36555162	     90.00000001	      0.00000000	      0.00000000	     -8.61087438	    -11.88420649	    -18.60500313	     42.80868933	     90.00000001	      0.00000000	      0.00000000
      2.02000000	     -2.17151402	     -3.23310712	     -7.72645373	     -0.34789091	      0.85038468	      0.20732537	     -4.35235711	      3.17713849	     -2.74371159	     10.52755949	      7.43563049	      0.18374058	     15.31236333	      7.29382853	     -7.50348359	     30.02999321	    -11.16993040	     -9.17546724	     28.07054280	      9.14763693	      0.48992339	      4.52969471	    -16.52863676	     -7.50348359	     -8.48149562	      3.15433976	      9.92505513	     12.35112852	    -25.99450724	      9.29333263	     45.99099788	     90.00000001	      0.00000000	      0.00000000	     -8.81751393	    -11.79933529	    -18.81452791	     42.76050335	     90.00000001	      0.00000000	      0.00000000
      2.03000000	     -1.98028216	     -3.35102235	     -7.90924430	     -0.33659906	      0.84871082	      0.20754753	     -5.28082836	      3.13060991	     -2.73252504	     10.84552876	      7.46050838	      0.18929019	     15.94228080	      7.53173917	     -7.50338038	     29.54252542	    -11.23654655	     -9.79342704	     24.50393281	      9.19970593	      0.42767431	      4.11253192	    -15.70120541	     -7.50338038	     -8.76293910	      3.23531286	     10.20896703	     13.03756536	    -26.27043517	      9.98214490	     46.64631909	     90.00000001	      0.00000000	      0.00000000	     -8.99648155	    -11.70553212	    -19.11455330	     42.71440165	     90.00000001	      0.00000000	      0.00000000
      2.04000000	     -1.83165912	     -3.47668477	     -8.10617329	     -0.32527319	      0.84701208	      0.20773945	     -6.07918859	      3.08406981	     -2.81804420	     11.34362087	      7.44770421	      0.19798353	     16.57451234	      8.02631031	     -7.50310714	     29.05676475	    -11.30425405	    -10.19426667	     21.16160281	      9.31133643	      0.36933964	      3.63090146	    -15.00248398	     -7.50310714	     -9.00507394	      3.33430002	     10.41226479	     13.77165312	    -26.79317081	     11.64179218	     47.37118538	     90.00000001	      0.00000000	      0.00000000	     -9.14585762	    -11.50632809	    -19.82823427	     42.62040283	     90.00000001	      0.00000000	      0.00000000
      2.05000000	     -1.73557215	     -3.56483771	     -8.30413848	     -0.31382000	      0.84531349	      0.20789918	     -6.80311245	      2.99663883	     -2.69276002	     11.86531518	      7.45976544	      0.20708882	     17.10037961	      8.03929390	     -7.50302194	     28.65658860	    -11.33429485	    -10.67398634	     18.27039256	      9.33565866	      0.31887851	      3.39639686	    -13.60510800	     -7.50302194	     -9.16749842	      3.37678860	     10.73044886	     14.32496854	    -26.93320438	     11.87258811	     47.80576672	     90.00000001	      0.00000000	      0.00000000	     -9.29064477	    -11.44115971	    -19.94321961	     42.62630441	     90.00000001	      0.00000000	      0.00000000
